<svg xmlns="http://www.w3.org/2000/svg" width="1920" height="1080" viewBox="0 0 1920 1080"><defs><marker id="arr" viewBox="0 0 10 10" refX="8" refY="5" markerWidth="7" markerHeight="7" orient="auto-start-reverse"><path d="M0 1 L9 5 L0 9" fill="none" stroke="#C8432B" stroke-width="1.6"/></marker><marker id="arrInk" viewBox="0 0 10 10" refX="8" refY="5" markerWidth="7" markerHeight="7" orient="auto-start-reverse"><path d="M0 1 L9 5 L0 9" fill="none" stroke="#1C1A17" stroke-width="1.6"/></marker></defs><rect width="1920" height="1080" fill="#F2EDE3"/><g fill="none" stroke="#1C1A17" stroke-opacity="0.45" stroke-width="2"><rect x="150" y="260" width="780" height="505.14285714285717"/><line x1="540.0" y1="260" x2="540.0" y2="765.1428571428571"/><circle cx="540.0" cy="512.5714285714286" r="67.97142857142858"/><rect x="150" y="362.81142857142856" width="122.57142857142857" height="299.52000000000004"/><rect x="150" y="444.5257142857143" width="40.85714285714286" height="136.09142857142857"/><path d="M272.57142857142856 458.34285714285716 A67.97142857142858 67.97142857142858 0 0 1 272.57142857142856 566.8"/><rect x="807.4285714285714" y="362.81142857142856" width="122.57142857142857" height="299.52000000000004"/><rect x="889.1428571428571" y="444.5257142857143" width="40.85714285714286" height="136.09142857142857"/><path d="M807.4285714285714 458.34285714285716 A67.97142857142858 67.97142857142858 0 0 0 807.4285714285714 566.8"/></g><circle cx="540.0" cy="512.5714285714286" r="3" fill="#1C1A17" fill-opacity="0.45"/><circle cx="915.1" cy="512.6" r="12" fill="#8A8378"/><circle cx="744.3" cy="408.6" r="12" fill="#1C1A17"/><circle cx="788.9" cy="601.7" r="12" fill="#1C1A17"/><circle cx="744.3" cy="512.6" r="12" fill="#1C1A17"/><line x1="744.3" y1="260" x2="744.3" y2="765.1428571428571" stroke="#C8432B" stroke-width="2.5" stroke-dasharray="10 8"/><circle cx="722.0" cy="482.9" r="12" fill="#C8432B"/><text x="150.0" y="226.0" font-family="'Noto Serif CJK SC','Source Han Serif SC','Songti SC',serif" font-size="30" fill="#1C1A17" text-anchor="start" font-weight="400" >1925 年以前：需要 3 名防守方</text><text x="930.0" y="825.1" font-family="'Noto Serif CJK SC','Source Han Serif SC','Songti SC',serif" font-size="20" fill="#8A8378" text-anchor="end" font-weight="400" >越位线 · offside line</text><g fill="none" stroke="#1C1A17" stroke-opacity="0.45" stroke-width="2"><rect x="990" y="260" width="780" height="505.14285714285717"/><line x1="1380.0" y1="260" x2="1380.0" y2="765.1428571428571"/><circle cx="1380.0" cy="512.5714285714286" r="67.97142857142858"/><rect x="990" y="362.81142857142856" width="122.57142857142857" height="299.52000000000004"/><rect x="990" y="444.5257142857143" width="40.85714285714286" height="136.09142857142857"/><path d="M1112.5714285714287 458.34285714285716 A67.97142857142858 67.97142857142858 0 0 1 1112.5714285714287 566.8"/><rect x="1647.4285714285713" y="362.81142857142856" width="122.57142857142857" height="299.52000000000004"/><rect x="1729.142857142857" y="444.5257142857143" width="40.85714285714286" height="136.09142857142857"/><path d="M1647.4285714285713 458.34285714285716 A67.97142857142858 67.97142857142858 0 0 0 1647.4285714285713 566.8"/></g><circle cx="1380.0" cy="512.5714285714286" r="3" fill="#1C1A17" fill-opacity="0.45"/><circle cx="1755.1" cy="512.6" r="12" fill="#8A8378"/><circle cx="1628.9" cy="408.6" r="12" fill="#1C1A17"/><circle cx="1569.4" cy="601.7" r="12" fill="#1C1A17"/><line x1="1569.4" y1="260" x2="1569.4" y2="765.1428571428571" stroke="#C8432B" stroke-width="2.5" stroke-dasharray="10 8"/><circle cx="1591.7" cy="482.9" r="12" fill="#C8432B"/><text x="990.0" y="226.0" font-family="'Noto Serif CJK SC','Source Han Serif SC','Songti SC',serif" font-size="30" fill="#C8432B" text-anchor="start" font-weight="400" >1925 年起：只需 2 名</text><text x="1770.0" y="825.1" font-family="'Noto Serif CJK SC','Source Han Serif SC','Songti SC',serif" font-size="20" fill="#8A8378" text-anchor="end" font-weight="400" >越位线 · offside line</text></svg>